<svg height="512pt" viewBox="-20 0 512 512" width="512pt" xmlns="http://www.w3.org/2000/svg"><path d="m67.351562 83.039062s-10.390624-6.625-19.007812-16.652343c-6.738281-7.84375-17.8125-10.753907-27.265625-6.558594-10.847656 4.816406-16.0625 16.949219-12.429687 27.992187 3.566406 10.835938 10.363281 25.085938 23.296874 39.390626 2.058594 2.277343 1.769532 5.8125-.652343 7.703124-5.074219 3.964844-13.050781 11.207032-17.863281 20.683594-3.105469 6.109375-2.457032 13.460938 1.507812 19.050782l.363281.507812c5.691407 8.019531 16.605469 10.195312 24.996094 5.0625 7.785156-4.765625 18.160156-9.464844 29.371094-10zm0 0" fill="#d67046"/><path d="m452.765625 267.449219c-5.308594-2.402344-11.371094-2.457031-16.730469-.175781-22.476562 9.5625-91.152344 26.902343-170.109375-69.460938l-170.742187 9.261719s-70.507813 68.4375-70.507813 153.359375c0 98.570312 80.929688 144.066406 159.789063 144.066406h62.144531c119.488281 0 217.023437-96.019531 218.367187-215.496094.003907-.433594.007813-1.351562.011719-2.546875.027344-8.191406-4.757812-15.632812-12.222656-19.007812zm0 0" fill="#ffe675"/><g fill="#ffb258"><path d="m457.539062 270.457031c-1.425781-1.195312-3.023437-2.21875-4.769531-3.007812-5.3125-2.402344-11.371093-2.457031-16.734375-.175781-5.503906 2.339843-13.785156 5.144531-24.300781 6.636718 19.214844 2.621094 34.953125-.113281 45.804687-3.453125zm0 0"/><path d="m54.929688 360.4375c0-84.921875 70.511718-153.363281 70.511718-153.363281l141.792969-7.691407c-.4375-.523437-.871094-1.035156-1.308594-1.570312l-170.742187 9.261719s-70.507813 68.441406-70.507813 153.363281c0 98.570312 80.929688 144.0625 159.789063 144.0625h30.253906c-78.855469 0-159.789062-45.492188-159.789062-144.0625zm0 0"/><path d="m176.28125 265.035156c42.351562 0 80.410156-18.738281 106.324219-48.355468-5.5-5.75-11.0625-12.011719-16.679688-18.867188l-170.742187 9.261719s-6.976563 6.773437-16.539063 18.699219c25.386719 24.304687 59.796875 39.261718 97.636719 39.261718zm0 0"/></g><path d="m292.546875 123.769531c0 64.210938-52.054687 116.265625-116.265625 116.265625-64.214844 0-116.269531-52.054687-116.269531-116.265625 0-64.214843 52.054687-116.269531 116.269531-116.269531 64.210938 0 116.265625 52.054688 116.265625 116.269531zm0 0" fill="#ffe675"/><path d="m298.507812 332.0625c-28.726562-33.851562-56.613281-61.460938-104.898437-61.460938-48.488281 0-87.792969 39.308594-87.792969 87.792969 0 48.488281 39.304688 87.796875 87.792969 87.796875h89.925781c42.609375 0 80.28125-28.164062 91.796875-69.183594.113281-.398437.222657-.792968.328125-1.183593 2.304688-8.480469-3.839844-16.890625-12.625-17.242188-25.199218-1.011719-47.71875-6.703125-64.527344-26.519531zm0 0" fill="#ffb258"/><path d="m116.972656 117.269531c4.140625 0 7.5-3.359375 7.5-7.5v-18.777343c0-4.140626-3.359375-7.5-7.5-7.5-4.144531 0-7.5 3.359374-7.5 7.5v18.777343c0 4.140625 3.355469 7.5 7.5 7.5zm0 0"/><path d="m122.113281 307.9375c-3.566406-2.105469-8.164062-.921875-10.269531 2.644531-8.59375 14.554688-13.132812 31.21875-13.132812 48.191407 0 52.335937 42.578124 94.914062 94.914062 94.914062h89.539062c45.777344 0 86.332032-30.574219 98.621094-74.355469 1.875-6.679687 1.179688-13.566406-3-19.269531-3.816406-5.207031-9.707031-8.339844-16.164062-8.597656-28.0625-1.128906-45.65625-8.234375-58.832032-23.765625-28.546874-33.640625-58.453124-63.84375-110.164062-63.84375-22.085938 0-43.601562 7.757812-60.574219 21.84375-3.1875 2.648437-3.628906 7.375-.984375 10.5625 2.648438 3.1875 7.375 3.628906 10.5625.980469 14.289063-11.855469 32.398438-18.386719 50.996094-18.386719 45.359375 0 71.546875 26.515625 98.726562 58.550781 20.433594 24.082031 47.964844 28.171875 69.667969 29.046875 2.554688.101563 4.023438 1.597656 4.667969 2.476563 1.453125 1.976562 1.273438 4.121093.65625 6.347656-10.480469 37.335937-45.097656 63.410156-84.179688 63.410156h-89.539062c-44.0625 0-79.914062-35.847656-79.914062-79.914062 0-14.292969 3.820312-28.320313 11.050781-40.566407 2.105469-3.566406.917969-8.164062-2.648438-10.269531zm0 0"/><path d="m440.257812 370.019531c-1.648437 3.800781.097657 8.21875 3.898438 9.863281 3.796875 1.648438 8.214844-.097656 9.863281-3.894531 11.917969-27.484375 18.128907-56.71875 18.46875-86.90625.234375-20.601562-19.019531-37.371093-39.378906-28.710937-10.160156 4.324218-31.382813 10.667968-59.335937 4.566406-33.511719-7.316406-66.535157-29.957031-98.222657-67.3125 15.390625-20.628906 24.511719-46.195312 24.511719-73.855469 0-68.246093-55.523438-123.769531-123.769531-123.769531-49.511719 0-92.320313 29.230469-112.09375 71.335938-3.113281-2.570313-6.796875-5.933594-10.152344-9.835938-8.664063-10.085938-23.554687-14.050781-36-8.527344-14.300781 6.351563-21.398437 22.339844-16.507813 37.191406 4.78125 14.523438 12.613282 28.078126 23.300782 40.324219-5.921875 4.886719-13.285156 12.269531-18.085938 21.707031-11.5625 22.753907 15.726563 47.730469 37.46875 34.417969 7.132813-4.367187 14.285156-7.207031 20.960938-8.359375 5.183594 10.523438 11.808594 20.214844 19.632812 28.800782-6.675781 7.238281-18.898437 21.476562-31.203125 40.828124-30.105469 47.355469-36.425781 87.34375-36.425781 112.550782 0 47.765625 18.390625 87.492187 53.183594 114.890625 30.03125 23.652343 70.558594 36.675781 114.105468 36.675781h62.144532c39.171875 0 77.785156-10.1875 111.660156-29.457031 32.882812-18.707031 60.777344-45.585938 80.667969-77.734375 2.179687-3.519532 1.089843-8.144532-2.429688-10.324219-3.523437-2.175781-8.148437-1.089844-10.324219 2.433594-18.574218 30.019531-44.625 55.117187-75.332031 72.585937-31.617187 17.988282-67.664062 27.496094-104.242187 27.496094h-62.144532c-40.199218 0-77.425781-11.882812-104.828124-33.460938-31.050782-24.449218-47.460938-60.105468-47.460938-103.105468 0-67.816406 47.765625-125.746094 63.371094-142.859375 18.472656 15.9375 40.957031 25.921875 64.992187 28.964843 9.394531 1.191407 18.957031 1.320313 28.378907.355469 29.277343-2.980469 56.4375-16.246093 76.84375-37.617187 33.378906 38.769531 68.601562 62.410156 104.800781 70.3125 32.015625 6.988281 56.601562-.394532 68.40625-5.417969 10.421875-4.4375 18.605469 4.992187 18.507812 14.746094-.316406 28.171875-6.113281 55.460937-17.230469 81.101562zm-263.964843-355.019531c59.976562 0 108.769531 48.792969 108.769531 108.769531 0 51.511719-36 94.777344-84.164062 105.960938-.03125.003906-.0625.011719-.089844.019531-11.664063 2.777344-23.898438 3.4375-35.8125 2.203125-54.679688-5.667969-97.464844-52.015625-97.472656-108.183594 0-12.394531 2.152343-24.753906 6.285156-36.433593 15.015625-42.109376 55.28125-72.335938 102.484375-72.335938zm-117.03125 149.132812c-7.5 1.726563-15.15625 4.964844-22.871094 9.6875-9.234375 5.652344-21.273437-4.96875-16.265625-14.824218 4.28125-8.421875 11.734375-15 15.796875-18.171875 5.773437-4.507813 6.503906-13.21875 1.597656-18.644531-12.542969-13.871094-18.742187-27.617188-21.734375-36.703126-2.46875-7.503906 1.121094-15.582031 8.347656-18.792968 6.414063-2.84375 14.042969-.636719 18.535157 4.589844 5.503906 6.40625 11.621093 11.496093 15.765625 14.625-.101563.316406-.1875.636718-.285156.953124-7.625 24.382813-7.445313 51.097657.476562 75.386719.207031.632813.417969 1.265625.636719 1.894531zm0 0"/></svg>